<svg width="1365" height="261" xmlns="http://www.w3.org/2000/svg">
 <defs>
  <style>@import url(https://fonts.googleapis.com/css?family=Russo+One:400|Passion+One:400,700,900);</style>
 </defs>
 <g>
  <title>background</title>
  <rect fill="none" id="canvas_background" height="263" width="1367" y="-1" x="-1"/>
 </g>
 <g>
  <title>Layer 1</title>
  <g id="svg_1" transform="matrix(1.3487476110458374,0,0,1.3487476110458374,0,-0.3511716418734636) ">
   <g id="svg_2" fill-rule="evenodd" fill="none">
    <path id="svg_3" fill="#a29aff" d="m0.73107,0.79703l115.23687,0c26.8885,0 46.09456,19.22143 46.09456,46.12985l0,65.34901c0,5.75062 0,15.37624 -7.68242,23.06436c0,0 -49.93578,49.97277 -49.93578,49.97277c-7.68242,7.68812 -18.5114,7.68812 -23.04729,7.68812c-7.93256,0 -19.4562,0 -34.57092,0c-26.8885,0 -46.09502,-19.2203 -46.09502,-46.12871l0,-146.07539z"/>
    <path id="svg_4" fill="#fff" d="m27.62001,27.70749l76.82437,0c17.92562,0 30.72962,13.83861 30.72962,33.21267l0,21.00131l0,26.04998l0,35.48335s-24.19581,22.63883 -28.73386,22.63883c-4.53803,0 -22.01907,0 -25.04298,0c-5.28836,0 -12.97077,0 -23.04723,0c-17.92562,0 -30.72993,-13.83861 -30.72993,-33.21267c0,-32.62116 0,-57.08703 0,-73.39761c0,-7.0613 0,-17.65324 0,-31.77585z"/>
    <path id="svg_5" fill="#4f27d8" d="m162.0625,116.11995c0,5.75062 0,11.53218 -7.68242,19.2203c0,0 -49.93578,49.97277 -49.93578,49.97277c-7.68242,7.68812 -18.5114,7.68812 -23.04751,7.68812c7.68265,0 7.68265,-7.68812 7.68265,-15.37624l0,-57.66089l57.61821,0c7.68243,0 15.36485,0 15.36485,-3.84406z"/>
    <path id="svg_6" fill=" rgb(85, 85, 85)" d="m238.14487,125.20949c0,8.42649 -1.97217,14.62984 -5.91651,18.60995c-3.98022,3.94434 -10.07594,5.91646 -18.28718,5.91646c-8.2114,0 -16.92467,-0.43023 -26.14004,-1.29086l0,-17.4266c6.70528,0.43023 13.58989,0.64538 20.65382,0.64538c1.97217,0 3.54987,-0.57368 4.73322,-1.72115c1.14742,-1.18329 1.7211,-2.761 1.7211,-4.73317l0,-49.05276l-16.78123,0l0,-18.07209l40.01682,0l0,67.12485zm41.30694,6.45432c4.55384,0 9.71724,-0.86052 15.49031,-2.58167l0,-7.74524l-18.71752,0c-1.29092,0 -2.36658,0.43034 -3.22721,1.29086c-0.86047,0.86063 -1.29081,1.9363 -1.29081,3.22721l0,1.29086c0,1.29081 0.43034,2.36658 1.29081,3.22711c0.86063,0.86063 1.9363,1.29086 3.22721,1.29086l3.22721,0m-23.88103,-50.34368c15.74138,-1.7211 29.94088,-2.58167 42.5985,-2.58167c5.84476,0 10.54211,1.75697 14.09193,5.27097c3.514,3.54987 5.27097,8.24722 5.27097,14.09193l0,50.34368l-20.00828,0l-1.29092,-6.45426c-4.05186,2.65342 -8.21134,4.60763 -12.4784,5.86262c-4.23113,1.25504 -7.81682,1.88251 -10.7572,1.88251l-4.51797,0c-5.84476,0 -10.542,-1.75703 -14.09193,-5.27097c-3.514,-3.54993 -5.27097,-8.24722 -5.27097,-14.09198l0,-5.80889c0,-5.84471 1.75697,-10.54205 5.27097,-14.09187c3.54993,-3.51405 8.24717,-5.27108 14.09193,-5.27108l26.4627,0l0,-5.16345c0,-1.29081 -0.43034,-2.36653 -1.29081,-3.22711c-0.86063,-0.86063 -1.93635,-1.29092 -3.22721,-1.29092c-5.59369,0 -11.76117,0.25102 -18.50238,0.753c-6.77703,0.53791 -12.22733,0.93233 -16.35094,1.18329l0,-16.13579zm118.11316,-1.29086l23.88103,0l-25.81733,68.41577l-25.81727,0l-25.81727,-68.41577l23.88098,0l14.84498,46.47109l14.84488,-46.47109zm53.56998,51.63454c4.5539,0 9.7173,-0.86052 15.49031,-2.58167l0,-7.74524l-18.71747,0c-1.29092,0 -2.36664,0.43034 -3.22721,1.29086c-0.86052,0.86063 -1.29081,1.9363 -1.29081,3.22721l0,1.29086c0,1.29081 0.43029,2.36658 1.29081,3.22711c0.86058,0.86063 1.9363,1.29086 3.22721,1.29086l3.22716,0m-23.88098,-50.34368c15.74138,-1.7211 29.94083,-2.58167 42.5985,-2.58167c5.84476,0 10.54205,1.75697 14.09187,5.27097c3.51405,3.54987 5.27103,8.24722 5.27103,14.09193l0,50.34368l-20.00833,0l-1.29086,-6.45426c-4.05186,2.65342 -8.2114,4.60763 -12.4784,5.86262c-4.23118,1.25504 -7.81682,1.88251 -10.7572,1.88251l-4.51802,0c-5.84476,0 -10.542,-1.75703 -14.09187,-5.27097c-3.51405,-3.54993 -5.27103,-8.24722 -5.27103,-14.09198l0,-5.80889c0,-5.84471 1.75697,-10.54205 5.27103,-14.09187c3.54987,-3.51405 8.24711,-5.27108 14.09187,-5.27108l26.4627,0l0,-5.16345c0,-1.29081 -0.43029,-2.36653 -1.29081,-3.22711c-0.86058,-0.86063 -1.9363,-1.29092 -3.22721,-1.29092c-5.59369,0 -11.76117,0.25102 -18.50238,0.753c-6.77698,0.53791 -12.22733,0.93233 -16.35088,1.18329l0,-16.13579z"/>
    <path id="svg_7" fill=" rgb(167, 159, 252)" d="m544.09557,122.96929c0,17.55467 -9.3898,26.33204 -28.16909,26.33204l-36.00751,0l0,-91.24336l35.27266,0c9.30799,0 16.20745,1.8779 20.69822,5.63382c4.49052,3.75586 6.7359,9.75704 6.7359,18.00372c0,8.24662 -3.36798,14.51321 -10.10407,18.79981l0,0.9185c7.71594,3.02113 11.57388,10.20621 11.57388,21.55548m-34.04786,10.04289c2.93932,0 4.9193,-0.67361 5.94007,-2.02083c1.02052,-1.30637 1.53093,-4.04159 1.53093,-8.20578c0,-4.16407 -0.53074,-7.10351 -1.59223,-8.81815c-1.10227,-1.71464 -3.06186,-2.57196 -5.87877,-2.57196l-4.71532,0l0,21.61672l4.71532,0m0.12241,-35.88497c2.24538,0 3.8171,-0.69394 4.7152,-2.082c0.85744,-1.34728 1.2861,-3.75586 1.2861,-7.22598c0,-3.51091 -0.44905,-5.96046 -1.34722,-7.34852c-0.93907,-1.42879 -2.53112,-2.14324 -4.7765,-2.14324l-4.71532,0l0,18.79975l4.83774,0zm39.24861,16.65651c0,0 0,-3.20472 0,-9.61417c0,-6.45035 2.46982,-12.57407 7.40963,-18.37115c4.93982,-5.75629 12.67609,-8.63444 23.20894,-8.63444c10.53279,0 18.20777,2.8373 23.02517,8.51196c4.7765,5.6746 7.16469,15.00304 7.16469,27.98532c0,12.98234 -2.3474,22.4128 -7.04227,28.29163c-4.69481,5.87871 -12.39017,8.81815 -23.08635,8.81815c-10.65539,0 -18.43238,-2.93944 -23.33129,-8.81815c-4.89909,-5.87883 -7.34852,-15.26844 -7.34852,-28.16915m35.33372,-13.83954c0,0 -0.16314,-0.4899 -0.48977,-1.46975c-0.3267,-0.97979 -1.75555,-1.46963 -4.28666,-1.46963c-2.53112,0 -4.14373,0.97973 -4.83761,2.93938c-0.69406,1.95953 -1.04115,6.06242 -1.04115,12.30861l0,3.55182c0,6.94019 0.34709,11.45129 1.04115,13.53341c0.69388,2.04122 2.28611,3.06186 4.7765,3.06186c2.49015,0 4.08237,-1.02064 4.77644,-3.06186c0.69394,-2.08212 1.04097,-6.30743 1.04097,-12.67615l0,-4.22536c0,-6.3686 -0.32652,-10.53279 -0.97986,-12.49232zm31.97425,13.83954c0,0 0,-3.20472 0,-9.61417c0,-6.45035 2.46982,-12.57407 7.40963,-18.37115c4.93982,-5.75629 12.67615,-8.63444 23.20894,-8.63444c10.53279,0 18.20783,2.8373 23.02523,8.51196c4.7765,5.6746 7.16462,15.00304 7.16462,27.98532c0,12.98234 -2.3474,22.4128 -7.04221,28.29163c-4.69487,5.87871 -12.39042,8.81815 -23.08635,8.81815c-10.65539,0 -18.43244,-2.93944 -23.33136,-8.81815c-4.89909,-5.87883 -7.34852,-15.26844 -7.34852,-28.16915m35.33378,-13.83954c0,0 -0.16314,-0.4899 -0.48984,-1.46975c-0.32664,-0.97979 -1.75555,-1.46963 -4.28666,-1.46963c-2.53112,0 -4.14373,0.97973 -4.83761,2.93938c-0.69406,1.95953 -1.04109,6.06242 -1.04109,12.30861l0,3.55182c0,6.94019 0.34703,11.45129 1.04109,13.53341c0.69388,2.04122 2.28611,3.06186 4.7765,3.06186c2.49021,0 4.08244,-1.02064 4.7765,-3.06186c0.69388,-2.08212 1.04091,-6.30743 1.04091,-12.67615l0,-4.22536c0,-6.3686 -0.32646,-10.53279 -0.97979,-12.49232zm72.8193,49.47962c-7.26689,0.89817 -13.55393,1.34722 -18.86117,1.34722c-5.34796,0 -9.51209,-1.38806 -12.49244,-4.16419c-3.02095,-2.81685 -4.53149,-7.65464 -4.53149,-14.51314l0,-34.10916l-7.04221,0l0,-18.18743l8.26702,0l1.28592,-13.53335l22.22915,0l0,13.53335l13.04351,0l-1.04109,18.18743l-12.18613,0l0,29.27136c0,2.04128 0.97979,3.06186 2.93926,3.06186c0.20429,0 3.24557,-0.14287 9.12446,-0.4286l-0.73478,19.53465zm37.70696,-50.82684c0,0 -0.73485,0 -2.20448,0c-1.42891,0 -2.63332,1.30637 -3.61318,3.91918c-0.97961,2.57196 -1.46963,6.61361 -1.46963,12.1249c0,5.47056 0.46944,9.43058 1.40858,11.88007c0.93889,2.44942 2.89848,3.67423 5.87871,3.67423c2.98017,0 6.87889,-0.53074 11.6963,-1.59223l2.63314,18.79987c-6.77687,2.24538 -12.7985,3.36804 -18.06484,3.36804c-9.30817,0 -16.35038,-3.14349 -21.12688,-9.43058c-4.73578,-6.24619 -7.10351,-15.00304 -7.10351,-26.27068c0,-11.26764 2.44942,-20.41243 7.34852,-27.43424c4.89891,-6.9811 12.00242,-10.47155 21.31041,-10.47155c6.94019,0 13.20689,1.16351 18.79987,3.49046l-2.6332,21.61678c-5.6746,-2.44955 -9.96133,-3.67423 -12.8598,-3.67423zm72.93045,-1.34722l-0.73478,30.43487c0,1.87796 0.46944,3.12303 1.40833,3.73547c0.93907,0.65316 2.53112,0.97979 4.7765,0.97979l-2.20448,17.75877c-5.67466,0.40821 -8.79776,0.61237 -9.36928,0.61237c-7.26683,0 -11.88001,-2.49039 -13.83966,-7.47093l-0.73478,0c-3.63338,4.98054 -9.22636,7.47093 -16.77892,7.47093c-5.75635,0 -10.18576,-1.85757 -13.28858,-5.57258c-3.06186,-3.71514 -4.59279,-8.81815 -4.59279,-15.30929c0,-8.12421 2.51078,-13.75803 7.53223,-16.90145c5.06223,-3.14349 13.023,-5.20516 23.88249,-6.18501l0,-3.49046c0,-2.73528 -1.36761,-4.10295 -4.10295,-4.10295c-4.69487,0 -12.0432,1.40852 -22.04525,4.22536l-3.67429,-21.433c12.53316,-3.22512 22.96393,-4.83767 31.29212,-4.83767c8.32831,0 14.1663,1.61256 17.51389,4.83767c3.30668,3.22518 4.96021,8.30792 4.96021,15.24811m-28.3528,36.31357c3.63332,0 5.45017,-1.89835 5.45017,-5.69499l0,-7.22598c-3.63351,0.48984 -6.20534,1.24514 -7.71594,2.26577c-1.51054,1.02064 -2.26571,2.75567 -2.26571,5.2051c0,3.63345 1.51035,5.45011 4.53149,5.45011zm99.04093,-49.54086c5.38887,-4.57233 11.32887,-6.8585 17.82001,-6.8585c6.45042,0 10.9819,1.49008 13.59465,4.47025c2.57208,2.98023 3.858,7.4506 3.858,13.411l0,54.25612l-24.9847,0l0,-45.86669c0,-2.44942 -1.06148,-3.67417 -3.18445,-3.67417c-2.77613,0 -5.08262,0.694 -6.9198,2.08206l0,47.45879l-24.9847,0l0,-45.86669c0,-2.44942 -1.08188,-3.67417 -3.24557,-3.67417c-2.7354,0 -5.04184,0.694 -6.9198,2.08206l0,47.45879l-24.67857,0l0,-70.42273l22.4741,0l1.46963,5.14386l0.61243,0c5.38869,-4.57233 11.7778,-6.8585 19.16705,-6.8585c7.38949,0 12.20671,2.73528 14.45209,8.20572l1.46963,-1.34722zm68.7877,63.6867l0,21.73913l-24.67857,0l0,-90.56969l20.2695,0l1.46963,4.40908l0.73497,0c2.73522,-4.00087 8.12409,-6.00124 16.16655,-6.00124c8.0424,0 13.69667,2.79652 16.96263,8.38949c3.30687,5.59297 4.96015,14.75815 4.96015,27.49548c0,12.73727 -1.73497,22.20869 -5.20497,28.41404c-3.51097,6.20528 -9.92042,9.30799 -19.22859,9.30799c-4.28648,0 -7.89959,-1.06136 -10.83885,-3.18427l-0.61243,0m10.34908,-20.51445c0,0 0.10202,-0.42866 0.30612,-1.28604c0.16332,-0.85732 0.28573,-2.12291 0.36742,-3.7967c0.1226,-1.6738 0.18371,-4.83767 0.18371,-9.49176c0,-4.65396 -0.34691,-8.22611 -1.04097,-10.7165c-0.69406,-2.49027 -2.10239,-3.73547 -4.22536,-3.73547c-2.08206,0 -4.16407,0.59204 -6.24613,1.77594l0,30.37357c1.87778,0.89817 3.67411,1.34722 5.38875,1.34722c1.71458,0 2.93944,-0.32658 3.67423,-0.97973c0.73485,-0.61237 1.26559,-1.77594 1.59223,-3.49052z"/>
   </g>
  </g>
 </g>
</svg>